<svg version="1.1"
    xmlns="http://www.w3.org/2000/svg" x="0px" y="0px" viewBox="0 0 136.2 105" style="enable-background: new 0 0 136.2 105" xml:space="preserve">
    <g id="Layer_2">
        <rect x="-1740.3" y="-665" class="st0" width="1000" height="500"></rect>
        <rect x="-1740.3" y="-165" width="1000" height="500"></rect>
        <rect x="-2760.3" y="355" class="st0" width="1000" height="500"></rect>
        <rect x="-1740.3" y="355" class="st0" width="1000" height="500"></rect>
        <rect x="-2760.3" y="855" class="st1" width="1000" height="500"></rect>
        <rect x="-1740.3" y="855" class="st1" width="1000" height="500"></rect>
    </g>
    <g id="Layer_1">
        <g>
            <g>
                <g>
                    <g>
                        <path class="st2" d="M-2281.9-418.2c-2.6-2.4-3.9-5.4-3.9-9.2c0-3.4,1.2-6.3,3.6-8.5c2.4-2.3,5.7-3.7,10.1-4.4
                                    c1.1-0.1,2.1-0.2,3.1-0.4c3.5-0.4,5.6-0.7,6.3-0.9c1.8-0.3,2.8-1.3,2.8-3.1c0-1.8-0.8-3.3-2.3-4.4c-1.5-1.1-3.4-1.7-5.7-1.7
                                    c-4,0-7,1.5-8.8,4.4c-0.4,0.6-0.9,1-1.4,1c-0.4,0-0.7-0.1-1-0.3l-4.2-2.8c-0.4-0.3-0.7-0.7-0.7-1.3c0-0.1,0-0.4,0.1-0.7
                                    c1.4-2.7,3.6-4.9,6.4-6.4c2.8-1.5,6-2.3,9.6-2.3c3.3,0,6.2,0.6,8.6,1.9c2.5,1.2,4.4,3,5.8,5.3c1.4,2.3,2,4.9,2,7.9l0,28
                                    c0,0.4-0.1,0.8-0.4,1.1c-0.3,0.3-0.7,0.4-1.1,0.4h-5.1c-0.4,0-0.8-0.1-1.1-0.4c-0.3-0.3-0.4-0.7-0.4-1.2l0-3.8
                                    c-3.4,3.6-7.5,5.4-12.2,5.4C-2275.9-414.6-2279.3-415.8-2281.9-418.2z M-2265.5-424.1c1.7-1,3.1-2.3,4.2-3.9
                                    c1.1-1.6,1.6-3.3,1.6-5.1v-1.5l-5.6,0.8c-3,0.3-5,0.6-5.9,0.8c-4.1,0.7-6.1,2.5-6.1,5.3c0,1.5,0.6,2.8,1.7,3.7
                                    c1.1,0.9,2.7,1.4,4.5,1.4C-2269.1-422.6-2267.3-423.1-2265.5-424.1z"></path>
                        <path class="st2" d="M-2233.3-415.9c-2.5-0.8-4.7-2-6.6-3.5c-0.2-0.2-0.4-0.5-0.5-0.8c-0.1-0.3-0.1-0.6,0-0.9
                                    c0.3-0.8,1.2-2.4,2.5-4.7c0.4-0.6,0.9-0.9,1.5-0.9c0.3,0,0.7,0.1,1,0.3c1.8,1.2,3.5,2.1,5,2.7c1.6,0.6,3.2,0.9,5,0.9
                                    c2.1,0,3.7-0.4,4.8-1.2c1.1-0.8,1.6-1.8,1.6-3.2c0-1.1-0.5-2-1.4-2.7c-0.9-0.6-2.7-1.5-5.4-2.5l-2.7-1c-2.2-0.8-4-1.8-5.6-2.7
                                    c-1.5-1-2.8-2.3-3.9-4c-1.1-1.7-1.6-3.8-1.6-6.3c0-3.9,1.3-7,3.9-9.4c2.6-2.3,6.1-3.5,10.4-3.5c2.5,0,5,0.4,7.5,1.2
                                    c2.4,0.8,4.6,2,6.4,3.4c0.2,0.2,0.4,0.5,0.5,0.8c0.1,0.3,0.1,0.6,0,0.9c-0.4,1-1.2,2.6-2.2,4.7c-0.3,0.5-0.8,0.8-1.4,0.8
                                    c-0.3,0-0.7-0.1-1-0.3c-3.4-2.2-6.6-3.4-9.5-3.4c-1.7,0-3,0.4-4,1.1c-1,0.7-1.5,1.7-1.5,3c0,1.3,0.5,2.4,1.6,3.2
                                    c1.1,0.9,3.1,1.9,6,3c2.8,1.1,5,2,6.6,2.8s3,2,4.3,3.7c1.3,1.7,2,3.8,2,6.4c0,2.6-0.7,4.9-2,6.9c-1.3,2-3.2,3.5-5.5,4.6
                                    c-2.4,1.1-5.1,1.6-8.1,1.6C-2228.3-414.6-2230.8-415-2233.3-415.9z"></path>
                        <path class="st2" d="M-2191.4-401.8c-0.3-0.4-0.3-0.9-0.1-1.5l3.9-11l-14.6-42.5c-0.1-0.3-0.1-0.5-0.1-0.7
                                    c0-0.5,0.2-0.9,0.5-1.2c0.3-0.3,0.8-0.5,1.3-0.5h5.2c0.5,0,1,0.1,1.4,0.4c0.4,0.3,0.7,0.7,0.9,1.2l10.1,30.6l10.1-30.6
                                    c0.1-0.5,0.4-0.9,0.9-1.2c0.4-0.3,0.9-0.4,1.4-0.4h4.8c0.5,0,1,0.2,1.3,0.5c0.3,0.3,0.5,0.7,0.5,1.2c0,0.1-0.1,0.4-0.1,0.7
                                    l-18.7,54c-0.2,0.5-0.5,0.9-0.9,1.2c-0.4,0.3-0.9,0.4-1.4,0.4h-4.9C-2190.7-401.2-2191.1-401.4-2191.4-401.8z"></path>
                        <path class="st2" d="M-2153.4-415.1c-0.3-0.3-0.4-0.7-0.4-1.1l0-41.4c0-0.4,0.1-0.8,0.4-1.1c0.3-0.3,0.7-0.4,1.1-0.4h5.8
                                    c0.4,0,0.8,0.1,1.1,0.4c0.3,0.3,0.4,0.7,0.4,1.1v4.4c1.4-1.9,3-3.4,5-4.4c1.9-1.1,4-1.6,6.3-1.6c2.8,0,5.4,0.7,7.6,2
                                    c2.3,1.3,4,3.2,5.3,5.6c1.3,2.4,1.9,5.1,1.9,8l0,27.4c0,0.4-0.1,0.8-0.4,1.1c-0.3,0.3-0.7,0.4-1.1,0.4h-5.8
                                    c-0.4,0-0.8-0.1-1.1-0.4c-0.3-0.3-0.4-0.7-0.4-1.1l0-26.3c0-2.6-0.7-4.7-2-6.1c-1.3-1.4-3.2-2.1-5.7-2.1c-2.9,0-5.3,1-7,2.9
                                    c-1.7,1.9-2.6,4.6-2.6,7.9l0,23.7c0,0.4-0.1,0.8-0.4,1.1c-0.3,0.3-0.7,0.4-1.1,0.4h-5.8
                                    C-2152.8-414.6-2153.1-414.8-2153.4-415.1z"></path>
                        <path class="st2" d="M-2098.2-417c-2.7-1.6-4.9-3.7-6.4-6.5c-1.6-2.7-2.4-5.7-2.4-8.9v-9c0-3.2,0.8-6.2,2.4-8.9
                                    c1.6-2.7,3.7-4.9,6.4-6.5c2.7-1.6,5.7-2.4,8.9-2.4c2.5,0,4.9,0.5,7.2,1.5c2.3,1,4.2,2.4,5.9,4.3c0.3,0.3,0.5,0.7,0.5,1.2
                                    c0,0.5-0.2,1-0.7,1.5l-3.2,3.2c-0.3,0.3-0.7,0.5-1.2,0.5c-0.4,0-0.9-0.2-1.3-0.7c-1.9-1.9-4.3-2.9-7.2-2.9
                                    c-2.4,0-4.5,0.9-6.2,2.6c-1.7,1.7-2.6,3.8-2.6,6.2v9.8c0,2.4,0.9,4.5,2.6,6.2c1.7,1.7,3.8,2.6,6.2,2.6c2.9,0,5.3-1,7.2-2.9
                                    c0.4-0.4,0.8-0.7,1.3-0.7c0.4,0,0.8,0.2,1.2,0.5l3.2,3.2c0.4,0.4,0.7,0.9,0.7,1.5c0,0.4-0.2,0.8-0.5,1.2
                                    c-1.6,1.8-3.6,3.3-5.9,4.3c-2.3,1-4.7,1.5-7.2,1.5C-2092.6-414.6-2095.5-415.4-2098.2-417z"></path>
                    </g>
                    <g>
                        <path class="st1" d="M-2283.8-383.4h1.9v15.1h9.4v1.7h-11.3V-383.4z"></path>
                        <path class="st1" d="M-2213.2-383.4h-1.8l-7.6,16.9h1.9l6.6-14.7l6.5,14.7h2L-2213.2-383.4z"></path>
                        <path class="st1" d="M-2154.4-383.4h7.1c1.9,0,3.4,0.6,4.4,1.5c0.7,0.7,1.1,1.6,1.1,2.7v0c0,2.2-1.3,3.3-2.7,3.9
                                    c2,0.6,3.6,1.8,3.6,4.1v0c0,2.9-2.4,4.6-6.1,4.6h-7.4V-383.4z M-2143.7-378.9c0-1.7-1.3-2.7-3.7-2.7h-5.1v5.8h5
                                    C-2145.3-375.9-2143.7-376.9-2143.7-378.9L-2143.7-378.9z M-2147.2-374.2h-5.3v5.9h5.6c2.5,0,4.1-1.1,4.1-3v0
                                    C-2142.8-373.1-2144.3-374.2-2147.2-374.2z"></path>
                        <path class="st1" d="M-2090.3-369.1l1.2-1.4c1.7,1.5,3.4,2.3,5.7,2.3c2.2,0,3.7-1.2,3.7-2.8v0c0-1.5-0.8-2.4-4.4-3.1
                                    c-3.9-0.8-5.6-2-5.6-4.7v0c0-2.6,2.3-4.5,5.5-4.5c2.4,0,4.2,0.7,5.9,2l-1.1,1.4c-1.6-1.2-3.1-1.8-4.8-1.8
                                    c-2.2,0-3.6,1.2-3.6,2.6v0c0,1.5,0.9,2.4,4.5,3.2c3.7,0.8,5.5,2.1,5.5,4.6v0c0,2.8-2.4,4.6-5.7,4.6
                                    C-2086.2-366.5-2088.3-367.4-2090.3-369.1z"></path>
                    </g>
                </g>
                <g>
                    <g>
                        <g>
                            <path class="st3" d="M-2353.2-370.6c0,1.5-0.8,2.9-2.1,3.6c-0.6,0.4-1.3,0.5-2,0.5c-0.2,0-83.2,0-83.3,0c-0.1,0-0.1,0-0.2,0
                                        c-1.3,0-2.4-0.6-3.2-1.5c-0.1-0.1-0.2-0.2-0.3-0.3c-0.1-0.1-0.2-0.3-0.2-0.4c-0.3-0.6-0.5-1.2-0.5-1.9c0-1,0.4-1.9,1-2.8
                                        c0.2-0.3,29.2-43.9,29.2-44c0,0-7.1-10.6-7.1-10.6l-0.6-0.9c-0.5-1-0.8-2.1-0.8-3.2c0-0.8,0.1-1.6,0.4-2.3
                                        c0.3-0.9,3.4-5.5,3.9-6.2l15.5,23.3l-27.6,41.4h63.8l-7.3-10.9h11.3c0.1,0.2,8.5,12.8,8.9,13.3c0.3,0.4,0.6,0.9,0.8,1.3
                                        C-2353.3-371.7-2353.2-371.1-2353.2-370.6z"></path>
                            <path class="st3" d="M-2378.9-410.5h-11.3l-21.8-32.7c-0.8-1.1-1.2-2.4-1.2-3.9c0-1,0.3-2.1,0.7-3c0.3-0.6,3.5-5.3,3.5-5.4
                                        L-2378.9-410.5z"></path>
                        </g>
                    </g>
                    <path class="st2" d="M-2308.7-366.5h-7.8c-0.1,0-0.3,0-0.3,0c-1.9,0-3.5-0.8-4.6-2.2c-0.1-0.1-0.1-0.2-0.1-0.2
                                c0,0-0.1-0.1-0.1-0.2l-16.6-24.9c-0.2,0-44,0-44.5,0c-1.1,0-2.2,0-3.3-0.4c-1.9-0.6-3.3-2-4.4-3.6c-0.3-0.4-3.3-5.1-3.6-5.4
                                l49.6,0l-34.1-51.2l-10.5,15.8l-5.6-8.5l16.2-24.3L-2308.7-366.5z"></path>
                </g>
            </g>
            <g>
                <g>
                    <g>
                        <path class="st2" d="M-2281.9-167.3c-2.6-2.4-3.9-5.4-3.9-9.2c0-3.4,1.2-6.3,3.6-8.5c2.4-2.3,5.7-3.7,10.1-4.4
                                    c1.1-0.1,2.1-0.2,3.1-0.4c3.5-0.4,5.6-0.7,6.3-0.9c1.8-0.3,2.8-1.3,2.8-3.1c0-1.8-0.8-3.3-2.3-4.4c-1.5-1.1-3.4-1.7-5.7-1.7
                                    c-4,0-7,1.5-8.8,4.4c-0.4,0.6-0.9,1-1.4,1c-0.4,0-0.7-0.1-1-0.3l-4.2-2.8c-0.4-0.3-0.7-0.7-0.7-1.3c0-0.1,0-0.4,0.1-0.7
                                    c1.4-2.7,3.6-4.9,6.4-6.4c2.8-1.5,6-2.3,9.6-2.3c3.3,0,6.2,0.6,8.6,1.9c2.5,1.2,4.4,3,5.8,5.3c1.4,2.3,2,4.9,2,7.9l0,28
                                    c0,0.4-0.1,0.8-0.4,1.1c-0.3,0.3-0.7,0.4-1.1,0.4h-5.1c-0.4,0-0.8-0.1-1.1-0.4c-0.3-0.3-0.4-0.7-0.4-1.2l0-3.8
                                    c-3.4,3.6-7.5,5.4-12.2,5.4C-2275.9-163.8-2279.3-165-2281.9-167.3z M-2265.5-173.3c1.7-1,3.1-2.3,4.2-3.9
                                    c1.1-1.6,1.6-3.3,1.6-5.1v-1.5l-5.6,0.8c-3,0.3-5,0.6-5.9,0.8c-4.1,0.7-6.1,2.5-6.1,5.3c0,1.5,0.6,2.8,1.7,3.7
                                    c1.1,0.9,2.7,1.4,4.5,1.4C-2269.1-171.8-2267.3-172.3-2265.5-173.3z"></path>
                        <path class="st2" d="M-2233.3-165.1c-2.5-0.8-4.7-2-6.6-3.5c-0.2-0.2-0.4-0.5-0.5-0.8c-0.1-0.3-0.1-0.6,0-0.9
                                    c0.3-0.8,1.2-2.4,2.5-4.7c0.4-0.6,0.9-0.9,1.5-0.9c0.3,0,0.7,0.1,1,0.3c1.8,1.2,3.5,2.1,5,2.7c1.6,0.6,3.2,0.9,5,0.9
                                    c2.1,0,3.7-0.4,4.8-1.2c1.1-0.8,1.6-1.8,1.6-3.2c0-1.1-0.5-2-1.4-2.7c-0.9-0.6-2.7-1.5-5.4-2.5l-2.7-1c-2.2-0.8-4-1.8-5.6-2.7
                                    c-1.5-1-2.8-2.3-3.9-4c-1.1-1.7-1.6-3.8-1.6-6.3c0-3.9,1.3-7,3.9-9.4c2.6-2.3,6.1-3.5,10.4-3.5c2.5,0,5,0.4,7.5,1.2
                                    c2.4,0.8,4.6,2,6.4,3.4c0.2,0.2,0.4,0.5,0.5,0.8c0.1,0.3,0.1,0.6,0,0.9c-0.4,1-1.2,2.6-2.2,4.7c-0.3,0.5-0.8,0.8-1.4,0.8
                                    c-0.3,0-0.7-0.1-1-0.3c-3.4-2.2-6.6-3.4-9.5-3.4c-1.7,0-3,0.4-4,1.1c-1,0.7-1.5,1.7-1.5,3c0,1.3,0.5,2.4,1.6,3.2
                                    c1.1,0.9,3.1,1.9,6,3c2.8,1.1,5,2,6.6,2.8s3,2,4.3,3.7c1.3,1.7,2,3.8,2,6.4c0,2.6-0.7,4.9-2,6.9c-1.3,2-3.2,3.5-5.5,4.6
                                    c-2.4,1.1-5.1,1.6-8.1,1.6C-2228.3-163.8-2230.8-164.2-2233.3-165.1z"></path>
                        <path class="st2" d="M-2191.4-151c-0.3-0.4-0.3-0.9-0.1-1.5l3.9-11l-14.6-42.5c-0.1-0.3-0.1-0.5-0.1-0.7c0-0.5,0.2-0.9,0.5-1.2
                                    c0.3-0.3,0.8-0.5,1.3-0.5h5.2c0.5,0,1,0.1,1.4,0.4c0.4,0.3,0.7,0.7,0.9,1.2l10.1,30.6l10.1-30.6c0.1-0.5,0.4-0.9,0.9-1.2
                                    c0.4-0.3,0.9-0.4,1.4-0.4h4.8c0.5,0,1,0.2,1.3,0.5c0.3,0.3,0.5,0.7,0.5,1.2c0,0.1-0.1,0.4-0.1,0.7l-18.7,54
                                    c-0.2,0.5-0.5,0.9-0.9,1.2c-0.4,0.3-0.9,0.4-1.4,0.4h-4.9C-2190.7-150.4-2191.1-150.6-2191.4-151z"></path>
                        <path class="st2" d="M-2153.4-164.3c-0.3-0.3-0.4-0.7-0.4-1.1l0-41.4c0-0.4,0.1-0.8,0.4-1.1c0.3-0.3,0.7-0.4,1.1-0.4h5.8
                                    c0.4,0,0.8,0.1,1.1,0.4c0.3,0.3,0.4,0.7,0.4,1.1v4.4c1.4-1.9,3-3.4,5-4.4c1.9-1.1,4-1.6,6.3-1.6c2.8,0,5.4,0.7,7.6,2
                                    c2.3,1.3,4,3.2,5.3,5.6c1.3,2.4,1.9,5.1,1.9,8l0,27.4c0,0.4-0.1,0.8-0.4,1.1c-0.3,0.3-0.7,0.4-1.1,0.4h-5.8
                                    c-0.4,0-0.8-0.1-1.1-0.4c-0.3-0.3-0.4-0.7-0.4-1.1l0-26.3c0-2.6-0.7-4.7-2-6.1c-1.3-1.4-3.2-2.1-5.7-2.1c-2.9,0-5.3,1-7,2.9
                                    c-1.7,1.9-2.6,4.6-2.6,7.9l0,23.7c0,0.4-0.1,0.8-0.4,1.1c-0.3,0.3-0.7,0.4-1.1,0.4h-5.8C-2152.8-163.8-2153.1-164-2153.4-164.3
                                    z"></path>
                        <path class="st2" d="M-2098.2-166.2c-2.7-1.6-4.9-3.7-6.4-6.5c-1.6-2.7-2.4-5.7-2.4-8.9v-9c0-3.2,0.8-6.2,2.4-8.9
                                    c1.6-2.7,3.7-4.9,6.4-6.5c2.7-1.6,5.7-2.4,8.9-2.4c2.5,0,4.9,0.5,7.2,1.5c2.3,1,4.2,2.4,5.9,4.3c0.3,0.3,0.5,0.7,0.5,1.2
                                    c0,0.5-0.2,1-0.7,1.5l-3.2,3.2c-0.3,0.3-0.7,0.5-1.2,0.5c-0.4,0-0.9-0.2-1.3-0.7c-1.9-1.9-4.3-2.9-7.2-2.9
                                    c-2.4,0-4.5,0.9-6.2,2.6c-1.7,1.7-2.6,3.8-2.6,6.2v9.8c0,2.4,0.9,4.5,2.6,6.2c1.7,1.7,3.8,2.6,6.2,2.6c2.9,0,5.3-1,7.2-2.9
                                    c0.4-0.4,0.8-0.7,1.3-0.7c0.4,0,0.8,0.2,1.2,0.5l3.2,3.2c0.4,0.4,0.7,0.9,0.7,1.5c0,0.4-0.2,0.8-0.5,1.2
                                    c-1.6,1.8-3.6,3.3-5.9,4.3c-2.3,1-4.7,1.5-7.2,1.5C-2092.6-163.8-2095.5-164.6-2098.2-166.2z"></path>
                    </g>
                    <g>
                        <path class="st2" d="M-2283.8-132.6h1.9v15.1h9.4v1.7h-11.3V-132.6z"></path>
                        <path class="st2" d="M-2213.2-132.6h-1.8l-7.6,16.9h1.9l6.6-14.7l6.5,14.7h2L-2213.2-132.6z"></path>
                        <path class="st2" d="M-2154.4-132.6h7.1c1.9,0,3.4,0.6,4.4,1.5c0.7,0.7,1.1,1.6,1.1,2.7v0c0,2.2-1.3,3.3-2.7,3.9
                                    c2,0.6,3.6,1.8,3.6,4.1v0c0,2.9-2.4,4.6-6.1,4.6h-7.4V-132.6z M-2143.7-128.1c0-1.7-1.3-2.7-3.7-2.7h-5.1v5.8h5
                                    C-2145.3-125-2143.7-126.1-2143.7-128.1L-2143.7-128.1z M-2147.2-123.3h-5.3v5.9h5.6c2.5,0,4.1-1.1,4.1-3v0
                                    C-2142.8-122.3-2144.3-123.3-2147.2-123.3z"></path>
                        <path class="st2" d="M-2090.3-118.3l1.2-1.4c1.7,1.5,3.4,2.3,5.7,2.3c2.2,0,3.7-1.2,3.7-2.8v0c0-1.5-0.8-2.4-4.4-3.1
                                    c-3.9-0.8-5.6-2-5.6-4.7v0c0-2.6,2.3-4.5,5.5-4.5c2.4,0,4.2,0.7,5.9,2l-1.1,1.4c-1.6-1.2-3.1-1.8-4.8-1.8
                                    c-2.2,0-3.6,1.2-3.6,2.6v0c0,1.5,0.9,2.4,4.5,3.2c3.7,0.8,5.5,2.1,5.5,4.6v0c0,2.8-2.4,4.6-5.7,4.6
                                    C-2086.2-115.7-2088.3-116.6-2090.3-118.3z"></path>
                    </g>
                </g>
                <g>
                    <g>
                        <g>
                            <path class="st2" d="M-2353.2-119.8c0,1.5-0.8,2.9-2.1,3.6c-0.6,0.4-1.3,0.5-2,0.5c-0.2,0-83.2,0-83.3,0c-0.1,0-0.1,0-0.2,0
                                        c-1.3,0-2.4-0.6-3.2-1.5c-0.1-0.1-0.2-0.2-0.3-0.3c-0.1-0.1-0.2-0.3-0.2-0.4c-0.3-0.6-0.5-1.2-0.5-1.9c0-1,0.4-1.9,1-2.8
                                        c0.2-0.3,29.2-43.9,29.2-44c0,0-7.1-10.6-7.1-10.6l-0.6-0.9c-0.5-1-0.8-2.1-0.8-3.2c0-0.8,0.1-1.6,0.4-2.3
                                        c0.3-0.9,3.4-5.5,3.9-6.2l15.5,23.3l-27.6,41.4h63.8l-7.3-10.9h11.3c0.1,0.2,8.5,12.8,8.9,13.3c0.3,0.4,0.6,0.9,0.8,1.3
                                        C-2353.3-120.9-2353.2-120.3-2353.2-119.8z"></path>
                            <path class="st2" d="M-2378.9-159.7h-11.3l-21.8-32.7c-0.8-1.1-1.2-2.4-1.2-3.9c0-1,0.3-2.1,0.7-3c0.3-0.6,3.5-5.3,3.5-5.4
                                        L-2378.9-159.7z"></path>
                        </g>
                    </g>
                    <path class="st2" d="M-2308.7-115.7h-7.8c-0.1,0-0.3,0-0.3,0c-1.9,0-3.5-0.8-4.6-2.2c-0.1-0.1-0.1-0.2-0.1-0.2
                                c0,0-0.1-0.1-0.1-0.2l-16.6-24.9c-0.2,0-44,0-44.5,0c-1.1,0-2.2,0-3.3-0.4c-1.9-0.6-3.3-2-4.4-3.6c-0.3-0.4-3.3-5.1-3.6-5.4
                                l49.6,0l-34.1-51.2l-10.5,15.8l-5.6-8.5l16.2-24.3L-2308.7-115.7z"></path>
                </g>
            </g>
            <g>
                <g>
                    <g>
                        <path class="st3" d="M-2281.9,89.9c-2.6-2.4-3.9-5.4-3.9-9.2c0-3.4,1.2-6.3,3.6-8.5c2.4-2.3,5.7-3.7,10.1-4.4
                                    c1.1-0.1,2.1-0.2,3.1-0.4c3.5-0.4,5.6-0.7,6.3-0.9c1.8-0.3,2.8-1.3,2.8-3.1c0-1.8-0.8-3.3-2.3-4.4c-1.5-1.1-3.4-1.7-5.7-1.7
                                    c-4,0-7,1.5-8.8,4.4c-0.4,0.6-0.9,1-1.4,1c-0.4,0-0.7-0.1-1-0.3l-4.2-2.8c-0.4-0.3-0.7-0.7-0.7-1.3c0-0.1,0-0.4,0.1-0.7
                                    c1.4-2.7,3.6-4.9,6.4-6.4c2.8-1.5,6-2.3,9.6-2.3c3.3,0,6.2,0.6,8.6,1.9c2.5,1.2,4.4,3,5.8,5.3c1.4,2.3,2,4.9,2,7.9l0,28
                                    c0,0.4-0.1,0.8-0.4,1.1c-0.3,0.3-0.7,0.4-1.1,0.4h-5.1c-0.4,0-0.8-0.1-1.1-0.4c-0.3-0.3-0.4-0.7-0.4-1.2l0-3.8
                                    c-3.4,3.6-7.5,5.4-12.2,5.4C-2275.9,93.5-2279.3,92.3-2281.9,89.9z M-2265.5,84c1.7-1,3.1-2.3,4.2-3.9c1.1-1.6,1.6-3.3,1.6-5.1
                                    v-1.5l-5.6,0.8c-3,0.3-5,0.6-5.9,0.8c-4.1,0.7-6.1,2.5-6.1,5.3c0,1.5,0.6,2.8,1.7,3.7c1.1,0.9,2.7,1.4,4.5,1.4
                                    C-2269.1,85.5-2267.3,85-2265.5,84z"></path>
                        <path class="st3" d="M-2233.3,92.2c-2.5-0.8-4.7-2-6.6-3.5c-0.2-0.2-0.4-0.5-0.5-0.8c-0.1-0.3-0.1-0.6,0-0.9
                                    c0.3-0.8,1.2-2.4,2.5-4.7c0.4-0.6,0.9-0.9,1.5-0.9c0.3,0,0.7,0.1,1,0.3c1.8,1.2,3.5,2.1,5,2.7c1.6,0.6,3.2,0.9,5,0.9
                                    c2.1,0,3.7-0.4,4.8-1.2c1.1-0.8,1.6-1.8,1.6-3.2c0-1.1-0.5-2-1.4-2.7c-0.9-0.6-2.7-1.5-5.4-2.5l-2.7-1c-2.2-0.8-4-1.8-5.6-2.7
                                    c-1.5-1-2.8-2.3-3.9-4c-1.1-1.7-1.6-3.8-1.6-6.3c0-3.9,1.3-7,3.9-9.4c2.6-2.3,6.1-3.5,10.4-3.5c2.5,0,5,0.4,7.5,1.2
                                    c2.4,0.8,4.6,2,6.4,3.4c0.2,0.2,0.4,0.5,0.5,0.8c0.1,0.3,0.1,0.6,0,0.9c-0.4,1-1.2,2.6-2.2,4.7c-0.3,0.5-0.8,0.8-1.4,0.8
                                    c-0.3,0-0.7-0.1-1-0.3c-3.4-2.2-6.6-3.4-9.5-3.4c-1.7,0-3,0.4-4,1.1c-1,0.7-1.5,1.7-1.5,3c0,1.3,0.5,2.4,1.6,3.2
                                    c1.1,0.9,3.1,1.9,6,3c2.8,1.1,5,2,6.6,2.8c1.6,0.8,3,2,4.3,3.7c1.3,1.7,2,3.8,2,6.4c0,2.6-0.7,4.9-2,6.9
                                    c-1.3,2-3.2,3.5-5.5,4.6c-2.4,1.1-5.1,1.6-8.1,1.6C-2228.3,93.5-2230.8,93.1-2233.3,92.2z"></path>
                        <path class="st3" d="M-2191.4,106.3c-0.3-0.4-0.3-0.9-0.1-1.5l3.9-11l-14.6-42.5c-0.1-0.3-0.1-0.5-0.1-0.7
                                    c0-0.5,0.2-0.9,0.5-1.2c0.3-0.3,0.8-0.5,1.3-0.5h5.2c0.5,0,1,0.1,1.4,0.4c0.4,0.3,0.7,0.7,0.9,1.2l10.1,30.6l10.1-30.6
                                    c0.1-0.5,0.4-0.9,0.9-1.2c0.4-0.3,0.9-0.4,1.4-0.4h4.8c0.5,0,1,0.2,1.3,0.5c0.3,0.3,0.5,0.7,0.5,1.2c0,0.1-0.1,0.4-0.1,0.7
                                    l-18.7,54c-0.2,0.5-0.5,0.9-0.9,1.2c-0.4,0.3-0.9,0.4-1.4,0.4h-4.9C-2190.7,106.9-2191.1,106.7-2191.4,106.3z"></path>
                        <path class="st3" d="M-2153.4,93c-0.3-0.3-0.4-0.7-0.4-1.1l0-41.4c0-0.4,0.1-0.8,0.4-1.1c0.3-0.3,0.7-0.4,1.1-0.4h5.8
                                    c0.4,0,0.8,0.1,1.1,0.4c0.3,0.3,0.4,0.7,0.4,1.1v4.4c1.4-1.9,3-3.4,5-4.4c1.9-1.1,4-1.6,6.3-1.6c2.8,0,5.4,0.7,7.6,2
                                    c2.3,1.3,4,3.2,5.3,5.6c1.3,2.4,1.9,5.1,1.9,8l0,27.4c0,0.4-0.1,0.8-0.4,1.1c-0.3,0.3-0.7,0.4-1.1,0.4h-5.8
                                    c-0.4,0-0.8-0.1-1.1-0.4c-0.3-0.3-0.4-0.7-0.4-1.1l0-26.3c0-2.6-0.7-4.7-2-6.1c-1.3-1.4-3.2-2.1-5.7-2.1c-2.9,0-5.3,1-7,2.9
                                    c-1.7,1.9-2.6,4.6-2.6,7.9l0,23.7c0,0.4-0.1,0.8-0.4,1.1c-0.3,0.3-0.7,0.4-1.1,0.4h-5.8C-2152.8,93.5-2153.1,93.3-2153.4,93z"></path>
                        <path class="st3" d="M-2098.2,91.1c-2.7-1.6-4.9-3.7-6.4-6.5c-1.6-2.7-2.4-5.7-2.4-8.9v-9c0-3.2,0.8-6.2,2.4-8.9
                                    c1.6-2.7,3.7-4.9,6.4-6.5c2.7-1.6,5.7-2.4,8.9-2.4c2.5,0,4.9,0.5,7.2,1.5c2.3,1,4.2,2.4,5.9,4.3c0.3,0.3,0.5,0.7,0.5,1.2
                                    c0,0.5-0.2,1-0.7,1.5l-3.2,3.2c-0.3,0.3-0.7,0.5-1.2,0.5c-0.4,0-0.9-0.2-1.3-0.7c-1.9-1.9-4.3-2.9-7.2-2.9
                                    c-2.4,0-4.5,0.9-6.2,2.6c-1.7,1.7-2.6,3.8-2.6,6.2V76c0,2.4,0.9,4.5,2.6,6.2c1.7,1.7,3.8,2.6,6.2,2.6c2.9,0,5.3-1,7.2-2.9
                                    c0.4-0.4,0.8-0.7,1.3-0.7c0.4,0,0.8,0.2,1.2,0.5l3.2,3.2c0.4,0.4,0.7,0.9,0.7,1.5c0,0.4-0.2,0.8-0.5,1.2
                                    c-1.6,1.8-3.6,3.3-5.9,4.3c-2.3,1-4.7,1.5-7.2,1.5C-2092.6,93.5-2095.5,92.7-2098.2,91.1z"></path>
                    </g>
                    <g>
                        <path class="st3" d="M-2283.8,124.7h1.9v15.1h9.4v1.7h-11.3V124.7z"></path>
                        <path class="st3" d="M-2213.2,124.7h-1.8l-7.6,16.9h1.9l6.6-14.7l6.5,14.7h2L-2213.2,124.7z"></path>
                        <path class="st3" d="M-2154.4,124.7h7.1c1.9,0,3.4,0.6,4.4,1.5c0.7,0.7,1.1,1.6,1.1,2.7v0c0,2.2-1.3,3.3-2.7,3.9
                                    c2,0.6,3.6,1.8,3.6,4.1v0c0,2.9-2.4,4.6-6.1,4.6h-7.4V124.7z M-2143.7,129.2c0-1.7-1.3-2.7-3.7-2.7h-5.1v5.8h5
                                    C-2145.3,132.2-2143.7,131.2-2143.7,129.2L-2143.7,129.2z M-2147.2,133.9h-5.3v5.9h5.6c2.5,0,4.1-1.1,4.1-3v0
                                    C-2142.8,135-2144.3,133.9-2147.2,133.9z"></path>
                        <path class="st3" d="M-2090.3,139l1.2-1.4c1.7,1.5,3.4,2.3,5.7,2.3c2.2,0,3.7-1.2,3.7-2.8v0c0-1.5-0.8-2.4-4.4-3.1
                                    c-3.9-0.8-5.6-2-5.6-4.7v0c0-2.6,2.3-4.5,5.5-4.5c2.4,0,4.2,0.7,5.9,2l-1.1,1.4c-1.6-1.2-3.1-1.8-4.8-1.8
                                    c-2.2,0-3.6,1.2-3.6,2.6v0c0,1.5,0.9,2.4,4.5,3.2c3.7,0.8,5.5,2.1,5.5,4.6v0c0,2.8-2.4,4.6-5.7,4.6
                                    C-2086.2,141.6-2088.3,140.7-2090.3,139z"></path>
                    </g>
                </g>
                <g>
                    <g>
                        <g>
                            <path class="st3" d="M-2353.2,137.5c0,1.5-0.8,2.9-2.1,3.6c-0.6,0.4-1.3,0.5-2,0.5c-0.2,0-83.2,0-83.3,0c-0.1,0-0.1,0-0.2,0
                                        c-1.3,0-2.4-0.6-3.2-1.5c-0.1-0.1-0.2-0.2-0.3-0.3c-0.1-0.1-0.2-0.3-0.2-0.4c-0.3-0.6-0.5-1.2-0.5-1.9c0-1,0.4-1.9,1-2.8
                                        c0.2-0.3,29.2-43.9,29.2-44c0,0-7.1-10.6-7.1-10.6l-0.6-0.9c-0.5-1-0.8-2.1-0.8-3.2c0-0.8,0.1-1.6,0.4-2.3
                                        c0.3-0.9,3.4-5.5,3.9-6.2l15.5,23.3l-27.6,41.4h63.8l-7.3-10.9h11.3c0.1,0.2,8.5,12.8,8.9,13.3c0.3,0.4,0.6,0.9,0.8,1.3
                                        C-2353.3,136.4-2353.2,137-2353.2,137.5z"></path>
                            <path class="st3" d="M-2378.9,97.6h-11.3l-21.8-32.7c-0.8-1.1-1.2-2.4-1.2-3.9c0-1,0.3-2.1,0.7-3c0.3-0.6,3.5-5.3,3.5-5.4
                                        L-2378.9,97.6z"></path>
                        </g>
                    </g>
                    <path class="st3" d="M-2308.7,141.6h-7.8c-0.1,0-0.3,0-0.3,0c-1.9,0-3.5-0.8-4.6-2.2c-0.1-0.1-0.1-0.2-0.1-0.2
                                c0,0-0.1-0.1-0.1-0.2l-16.6-24.9c-0.2,0-44,0-44.5,0c-1.1,0-2.2,0-3.3-0.4c-1.9-0.6-3.3-2-4.4-3.6c-0.3-0.4-3.3-5.1-3.6-5.4
                                l49.6,0l-34.1-51.2l-10.5,15.8l-5.6-8.5l16.2-24.3L-2308.7,141.6z"></path>
                </g>
            </g>
        </g>
        <g>
            <g>
                <g>
                    <path d="M-1261.9-414.1c-2.6-2.4-3.9-5.4-3.9-9.2c0-3.4,1.2-6.3,3.6-8.5c2.4-2.3,5.7-3.7,10.1-4.4c1.1-0.1,2.1-0.2,3.1-0.4
                                c3.5-0.4,5.6-0.7,6.3-0.9c1.8-0.3,2.8-1.3,2.8-3.1c0-1.8-0.8-3.3-2.3-4.4s-3.4-1.7-5.7-1.7c-4,0-7,1.5-8.8,4.4
                                c-0.4,0.6-0.9,1-1.4,1c-0.4,0-0.7-0.1-1-0.3l-4.2-2.8c-0.4-0.3-0.7-0.7-0.7-1.3c0-0.1,0-0.4,0.1-0.7c1.4-2.7,3.6-4.9,6.4-6.4
                                c2.8-1.5,6-2.3,9.6-2.3c3.3,0,6.2,0.6,8.6,1.9c2.5,1.2,4.4,3,5.8,5.3c1.4,2.3,2,4.9,2,7.9l0,28c0,0.4-0.1,0.8-0.4,1.1
                                c-0.3,0.3-0.7,0.4-1.1,0.4h-5.1c-0.4,0-0.8-0.1-1.1-0.4c-0.3-0.3-0.4-0.7-0.4-1.2l0-3.8c-3.4,3.6-7.5,5.4-12.2,5.4
                                C-1255.9-410.6-1259.3-411.8-1261.9-414.1z M-1245.5-420c1.7-1,3.1-2.3,4.2-3.9c1.1-1.6,1.6-3.3,1.6-5.1v-1.5l-5.6,0.8
                                c-3,0.3-5,0.6-5.9,0.8c-4.1,0.7-6.1,2.5-6.1,5.3c0,1.5,0.6,2.8,1.7,3.7c1.1,0.9,2.7,1.4,4.5,1.4
                                C-1249.1-418.5-1247.3-419-1245.5-420z"></path>
                    <path d="M-1213.3-411.8c-2.5-0.8-4.7-2-6.6-3.5c-0.2-0.2-0.4-0.5-0.5-0.8c-0.1-0.3-0.1-0.6,0-0.9c0.3-0.8,1.2-2.4,2.5-4.7
                                c0.4-0.6,0.9-0.9,1.5-0.9c0.3,0,0.7,0.1,1,0.3c1.8,1.2,3.5,2.1,5,2.7c1.6,0.6,3.2,0.9,5,0.9c2.1,0,3.7-0.4,4.8-1.2
                                c1.1-0.8,1.6-1.8,1.6-3.2c0-1.1-0.5-2-1.4-2.7c-0.9-0.6-2.7-1.5-5.4-2.5l-2.7-1c-2.2-0.8-4-1.8-5.6-2.7s-2.8-2.3-3.9-4
                                c-1.1-1.7-1.6-3.8-1.6-6.3c0-3.9,1.3-7,3.9-9.4c2.6-2.3,6.1-3.5,10.4-3.5c2.5,0,5,0.4,7.5,1.2c2.4,0.8,4.6,2,6.4,3.4
                                c0.2,0.2,0.4,0.5,0.5,0.8c0.1,0.3,0.1,0.6,0,0.9c-0.4,1-1.2,2.6-2.2,4.7c-0.3,0.5-0.8,0.8-1.4,0.8c-0.3,0-0.7-0.1-1-0.3
                                c-3.4-2.2-6.6-3.4-9.5-3.4c-1.7,0-3,0.4-4,1.1c-1,0.7-1.5,1.7-1.5,3c0,1.3,0.5,2.4,1.6,3.2c1.1,0.9,3.1,1.9,6,3
                                c2.8,1.1,5,2,6.6,2.8c1.6,0.8,3,2,4.3,3.7c1.3,1.7,2,3.8,2,6.4c0,2.6-0.7,4.9-2,6.9c-1.3,2-3.2,3.5-5.5,4.6
                                c-2.4,1.1-5.1,1.6-8.1,1.6C-1208.3-410.6-1210.8-411-1213.3-411.8z"></path>
                    <path d="M-1171.4-397.8c-0.3-0.4-0.3-0.9-0.1-1.5l3.9-11l-14.6-42.5c-0.1-0.3-0.1-0.5-0.1-0.7c0-0.5,0.2-0.9,0.5-1.2
                                c0.3-0.3,0.8-0.5,1.3-0.5h5.2c0.5,0,1,0.1,1.4,0.4c0.4,0.3,0.7,0.7,0.9,1.2l10.1,30.6l10.1-30.6c0.1-0.5,0.4-0.9,0.9-1.2
                                c0.4-0.3,0.9-0.4,1.4-0.4h4.8c0.5,0,1,0.2,1.3,0.5c0.3,0.3,0.5,0.7,0.5,1.2c0,0.1-0.1,0.4-0.1,0.7l-18.7,54
                                c-0.2,0.5-0.5,0.9-0.9,1.2c-0.4,0.3-0.9,0.4-1.4,0.4h-4.9C-1170.7-397.1-1171.1-397.4-1171.4-397.8z"></path>
                    <path d="M-1133.4-411c-0.3-0.3-0.4-0.7-0.4-1.1l0-41.4c0-0.4,0.1-0.8,0.4-1.1c0.3-0.3,0.7-0.4,1.1-0.4h5.8
                                c0.4,0,0.8,0.1,1.1,0.4c0.3,0.3,0.4,0.7,0.4,1.1v4.4c1.4-1.9,3-3.4,5-4.4c1.9-1.1,4-1.6,6.3-1.6c2.8,0,5.4,0.7,7.6,2
                                c2.3,1.3,4,3.2,5.3,5.6s1.9,5.1,1.9,8l0,27.4c0,0.4-0.1,0.8-0.4,1.1c-0.3,0.3-0.7,0.4-1.1,0.4h-5.8c-0.4,0-0.8-0.1-1.1-0.4
                                c-0.3-0.3-0.4-0.7-0.4-1.1l0-26.3c0-2.6-0.7-4.7-2-6.1c-1.3-1.4-3.2-2.1-5.7-2.1c-2.9,0-5.3,1-7,2.9c-1.7,1.9-2.6,4.6-2.6,7.9
                                l0,23.7c0,0.4-0.1,0.8-0.4,1.1c-0.3,0.3-0.7,0.4-1.1,0.4h-5.8C-1132.8-410.6-1133.1-410.7-1133.4-411z"></path>
                    <path d="M-1078.2-413c-2.7-1.6-4.9-3.7-6.4-6.5c-1.6-2.7-2.4-5.7-2.4-8.9v-9c0-3.2,0.8-6.2,2.4-8.9c1.6-2.7,3.7-4.9,6.4-6.5
                                c2.7-1.6,5.7-2.4,8.9-2.4c2.5,0,4.9,0.5,7.2,1.5c2.3,1,4.2,2.4,5.9,4.3c0.3,0.3,0.5,0.7,0.5,1.2c0,0.5-0.2,1-0.7,1.5l-3.2,3.2
                                c-0.3,0.3-0.7,0.5-1.2,0.5c-0.4,0-0.9-0.2-1.3-0.7c-1.9-1.9-4.3-2.9-7.2-2.9c-2.4,0-4.5,0.9-6.2,2.6c-1.7,1.7-2.6,3.8-2.6,6.2
                                v9.8c0,2.4,0.9,4.5,2.6,6.2c1.7,1.7,3.8,2.6,6.2,2.6c2.9,0,5.3-1,7.2-2.9c0.4-0.4,0.8-0.7,1.3-0.7c0.4,0,0.8,0.2,1.2,0.5
                                l3.2,3.2c0.4,0.4,0.7,0.9,0.7,1.5c0,0.4-0.2,0.8-0.5,1.2c-1.6,1.8-3.6,3.3-5.9,4.3c-2.3,1-4.7,1.5-7.2,1.5
                                C-1072.6-410.6-1075.5-411.4-1078.2-413z"></path>
                </g>
                <g>
                    <path d="M-1263.8-379.3h1.9v15.1h9.4v1.7h-11.3V-379.3z"></path>
                    <path d="M-1193.2-379.3h-1.8l-7.6,16.9h1.9l6.6-14.7l6.5,14.7h2L-1193.2-379.3z"></path>
                    <path d="M-1134.4-379.3h7.1c1.9,0,3.4,0.6,4.4,1.5c0.7,0.7,1.1,1.6,1.1,2.7v0c0,2.2-1.3,3.3-2.7,3.9c2,0.6,3.6,1.8,3.6,4.1v0
                                c0,2.9-2.4,4.6-6.1,4.6h-7.4V-379.3z M-1123.7-374.9c0-1.7-1.3-2.7-3.7-2.7h-5.1v5.8h5C-1125.3-371.8-1123.7-372.8-1123.7-374.9
                                L-1123.7-374.9z M-1127.2-370.1h-5.3v5.9h5.6c2.5,0,4.1-1.1,4.1-3v0C-1122.8-369.1-1124.3-370.1-1127.2-370.1z"></path>
                    <path d="M-1070.3-365.1l1.2-1.4c1.7,1.5,3.4,2.3,5.7,2.3c2.2,0,3.7-1.2,3.7-2.8v0c0-1.5-0.8-2.4-4.4-3.1c-3.9-0.8-5.6-2-5.6-4.7
                                v0c0-2.6,2.3-4.5,5.5-4.5c2.4,0,4.2,0.7,5.9,2l-1.1,1.4c-1.6-1.2-3.1-1.8-4.8-1.8c-2.2,0-3.6,1.2-3.6,2.6v0
                                c0,1.5,0.9,2.4,4.5,3.2c3.7,0.8,5.5,2.1,5.5,4.6v0c0,2.8-2.4,4.6-5.7,4.6C-1066.2-362.5-1068.3-363.3-1070.3-365.1z"></path>
                </g>
            </g>
            <g>
                <g>
                    <g>
                        <path d="M-1333.2-366.5c0,1.5-0.8,2.9-2.1,3.6c-0.6,0.4-1.3,0.5-2,0.5c-0.2,0-83.2,0-83.3,0c-0.1,0-0.1,0-0.2,0
                                    c-1.3,0-2.4-0.6-3.2-1.5c-0.1-0.1-0.2-0.2-0.3-0.3c-0.1-0.1-0.2-0.3-0.2-0.4c-0.3-0.6-0.5-1.2-0.5-1.9c0-1,0.4-1.9,1-2.8
                                    c0.2-0.3,29.2-43.9,29.2-44c0,0-7.1-10.6-7.1-10.6l-0.6-0.9c-0.5-1-0.8-2.1-0.8-3.2c0-0.8,0.1-1.6,0.4-2.3
                                    c0.3-0.9,3.4-5.5,3.9-6.2l15.5,23.3l-27.6,41.4h63.8l-7.3-10.9h11.3c0.1,0.2,8.5,12.8,8.9,13.3c0.3,0.4,0.6,0.9,0.8,1.3
                                    C-1333.3-367.7-1333.2-367.1-1333.2-366.5z"></path>
                        <path d="M-1358.9-406.5h-11.3l-21.8-32.7c-0.8-1.1-1.2-2.4-1.2-3.9c0-1,0.3-2.1,0.7-3c0.3-0.6,3.5-5.3,3.5-5.4L-1358.9-406.5z"></path>
                    </g>
                </g>
                <path d="M-1288.7-362.5h-7.8c-0.1,0-0.3,0-0.3,0c-1.9,0-3.5-0.8-4.6-2.2c-0.1-0.1-0.1-0.2-0.1-0.2c0,0-0.1-0.1-0.1-0.2
                            l-16.6-24.9c-0.2,0-44,0-44.5,0c-1.1,0-2.2,0-3.3-0.4c-1.9-0.6-3.3-2-4.4-3.6c-0.3-0.4-3.3-5.1-3.6-5.4l49.6,0l-34.1-51.2
                            l-10.5,15.8l-5.6-8.5l16.2-24.3L-1288.7-362.5z"></path>
            </g>
        </g>
        <g>
            <g>
                <g>
                    <path class="st1" d="M-2281.9,605.9c-2.6-2.4-3.9-5.4-3.9-9.2c0-3.4,1.2-6.3,3.6-8.5c2.4-2.3,5.7-3.7,10.1-4.4
                                c1.1-0.1,2.1-0.2,3.1-0.4c3.5-0.4,5.6-0.7,6.3-0.9c1.8-0.3,2.8-1.3,2.8-3.1c0-1.8-0.8-3.3-2.3-4.4c-1.5-1.1-3.4-1.7-5.7-1.7
                                c-4,0-7,1.5-8.8,4.4c-0.4,0.6-0.9,1-1.4,1c-0.4,0-0.7-0.1-1-0.3l-4.2-2.8c-0.4-0.3-0.7-0.7-0.7-1.3c0-0.1,0-0.4,0.1-0.7
                                c1.4-2.7,3.6-4.9,6.4-6.4c2.8-1.5,6-2.3,9.6-2.3c3.3,0,6.2,0.6,8.6,1.9c2.5,1.2,4.4,3,5.8,5.3c1.4,2.3,2,4.9,2,7.9l0,28
                                c0,0.4-0.1,0.8-0.4,1.1c-0.3,0.3-0.7,0.4-1.1,0.4h-5.1c-0.4,0-0.8-0.1-1.1-0.4c-0.3-0.3-0.4-0.7-0.4-1.2l0-3.8
                                c-3.4,3.6-7.5,5.4-12.2,5.4C-2275.9,609.4-2279.3,608.2-2281.9,605.9z M-2265.5,600c1.7-1,3.1-2.3,4.2-3.9
                                c1.1-1.6,1.6-3.3,1.6-5.1v-1.5l-5.6,0.8c-3,0.3-5,0.6-5.9,0.8c-4.1,0.7-6.1,2.5-6.1,5.3c0,1.5,0.6,2.8,1.7,3.7
                                c1.1,0.9,2.7,1.4,4.5,1.4C-2269.1,601.5-2267.3,601-2265.5,600z"></path>
                    <path class="st1" d="M-2233.3,608.2c-2.5-0.8-4.7-2-6.6-3.5c-0.2-0.2-0.4-0.5-0.5-0.8c-0.1-0.3-0.1-0.6,0-0.9
                                c0.3-0.8,1.2-2.4,2.5-4.7c0.4-0.6,0.9-0.9,1.5-0.9c0.3,0,0.7,0.1,1,0.3c1.8,1.2,3.5,2.1,5,2.7c1.6,0.6,3.2,0.9,5,0.9
                                c2.1,0,3.7-0.4,4.8-1.2c1.1-0.8,1.6-1.8,1.6-3.2c0-1.1-0.5-2-1.4-2.7c-0.9-0.6-2.7-1.5-5.4-2.5l-2.7-1c-2.2-0.8-4-1.8-5.6-2.7
                                c-1.5-1-2.8-2.3-3.9-4c-1.1-1.7-1.6-3.8-1.6-6.3c0-3.9,1.3-7,3.9-9.4c2.6-2.3,6.1-3.5,10.4-3.5c2.5,0,5,0.4,7.5,1.2
                                c2.4,0.8,4.6,2,6.4,3.4c0.2,0.2,0.4,0.5,0.5,0.8c0.1,0.3,0.1,0.6,0,0.9c-0.4,1-1.2,2.6-2.2,4.7c-0.3,0.5-0.8,0.8-1.4,0.8
                                c-0.3,0-0.7-0.1-1-0.3c-3.4-2.2-6.6-3.4-9.5-3.4c-1.7,0-3,0.4-4,1.1c-1,0.7-1.5,1.7-1.5,3c0,1.3,0.5,2.4,1.6,3.2
                                c1.1,0.9,3.1,1.9,6,3c2.8,1.1,5,2,6.6,2.8s3,2,4.3,3.7c1.3,1.7,2,3.8,2,6.4c0,2.6-0.7,4.9-2,6.9c-1.3,2-3.2,3.5-5.5,4.6
                                c-2.4,1.1-5.1,1.6-8.1,1.6C-2228.3,609.4-2230.8,609-2233.3,608.2z"></path>
                    <path class="st1" d="M-2191.4,622.2c-0.3-0.4-0.3-0.9-0.1-1.5l3.9-11l-14.6-42.5c-0.1-0.3-0.1-0.5-0.1-0.7
                                c0-0.5,0.2-0.9,0.5-1.2c0.3-0.3,0.8-0.5,1.3-0.5h5.2c0.5,0,1,0.1,1.4,0.4c0.4,0.3,0.7,0.7,0.9,1.2l10.1,30.6l10.1-30.6
                                c0.1-0.5,0.4-0.9,0.9-1.2c0.4-0.3,0.9-0.4,1.4-0.4h4.8c0.5,0,1,0.2,1.3,0.5c0.3,0.3,0.5,0.7,0.5,1.2c0,0.1-0.1,0.4-0.1,0.7
                                l-18.7,54c-0.2,0.5-0.5,0.9-0.9,1.2c-0.4,0.3-0.9,0.4-1.4,0.4h-4.9C-2190.7,622.9-2191.1,622.6-2191.4,622.2z"></path>
                    <path class="st1" d="M-2153.4,609c-0.3-0.3-0.4-0.7-0.4-1.1l0-41.4c0-0.4,0.1-0.8,0.4-1.1c0.3-0.3,0.7-0.4,1.1-0.4h5.8
                                c0.4,0,0.8,0.1,1.1,0.4c0.3,0.3,0.4,0.7,0.4,1.1v4.4c1.4-1.9,3-3.4,5-4.4c1.9-1.1,4-1.6,6.3-1.6c2.8,0,5.4,0.7,7.6,2
                                c2.3,1.3,4,3.2,5.3,5.6s1.9,5.1,1.9,8l0,27.4c0,0.4-0.1,0.8-0.4,1.1c-0.3,0.3-0.7,0.4-1.1,0.4h-5.8c-0.4,0-0.8-0.1-1.1-0.4
                                c-0.3-0.3-0.4-0.7-0.4-1.1l0-26.3c0-2.6-0.7-4.7-2-6.1c-1.3-1.4-3.2-2.1-5.7-2.1c-2.9,0-5.3,1-7,2.9c-1.7,1.9-2.6,4.6-2.6,7.9
                                l0,23.7c0,0.4-0.1,0.8-0.4,1.1c-0.3,0.3-0.7,0.4-1.1,0.4h-5.8C-2152.8,609.4-2153.1,609.3-2153.4,609z"></path>
                    <path class="st1" d="M-2098.2,607c-2.7-1.6-4.9-3.7-6.4-6.5c-1.6-2.7-2.4-5.7-2.4-8.9v-9c0-3.2,0.8-6.2,2.4-8.9
                                c1.6-2.7,3.7-4.9,6.4-6.5c2.7-1.6,5.7-2.4,8.9-2.4c2.5,0,4.9,0.5,7.2,1.5c2.3,1,4.2,2.4,5.9,4.3c0.3,0.3,0.5,0.7,0.5,1.2
                                c0,0.5-0.2,1-0.7,1.5l-3.2,3.2c-0.3,0.3-0.7,0.5-1.2,0.5c-0.4,0-0.9-0.2-1.3-0.7c-1.9-1.9-4.3-2.9-7.2-2.9
                                c-2.4,0-4.5,0.9-6.2,2.6c-1.7,1.7-2.6,3.8-2.6,6.2v9.8c0,2.4,0.9,4.5,2.6,6.2c1.7,1.7,3.8,2.6,6.2,2.6c2.9,0,5.3-1,7.2-2.9
                                c0.4-0.4,0.8-0.7,1.3-0.7c0.4,0,0.8,0.2,1.2,0.5l3.2,3.2c0.4,0.4,0.7,0.9,0.7,1.5c0,0.4-0.2,0.8-0.5,1.2
                                c-1.6,1.8-3.6,3.3-5.9,4.3c-2.3,1-4.7,1.5-7.2,1.5C-2092.6,609.4-2095.5,608.6-2098.2,607z"></path>
                </g>
                <g>
                    <path class="st1" d="M-2283.8,640.7h1.9v15.1h9.4v1.7h-11.3V640.7z"></path>
                    <path class="st1" d="M-2213.2,640.7h-1.8l-7.6,16.9h1.9l6.6-14.7l6.5,14.7h2L-2213.2,640.7z"></path>
                    <path class="st1" d="M-2154.4,640.7h7.1c1.9,0,3.4,0.6,4.4,1.5c0.7,0.7,1.1,1.6,1.1,2.7v0c0,2.2-1.3,3.3-2.7,3.9
                                c2,0.6,3.6,1.8,3.6,4.1v0c0,2.9-2.4,4.6-6.1,4.6h-7.4V640.7z M-2143.7,645.1c0-1.7-1.3-2.7-3.7-2.7h-5.1v5.8h5
                                C-2145.3,648.2-2143.7,647.2-2143.7,645.1L-2143.7,645.1z M-2147.2,649.9h-5.3v5.9h5.6c2.5,0,4.1-1.1,4.1-3v0
                                C-2142.8,650.9-2144.3,649.9-2147.2,649.9z"></path>
                    <path class="st1" d="M-2090.3,654.9l1.2-1.4c1.7,1.5,3.4,2.3,5.7,2.3c2.2,0,3.7-1.2,3.7-2.8v0c0-1.5-0.8-2.4-4.4-3.1
                                c-3.9-0.8-5.6-2-5.6-4.7v0c0-2.6,2.3-4.5,5.5-4.5c2.4,0,4.2,0.7,5.9,2l-1.1,1.4c-1.6-1.2-3.1-1.8-4.8-1.8
                                c-2.2,0-3.6,1.2-3.6,2.6v0c0,1.5,0.9,2.4,4.5,3.2c3.7,0.8,5.5,2.1,5.5,4.6v0c0,2.8-2.4,4.6-5.7,4.6
                                C-2086.2,657.5-2088.3,656.7-2090.3,654.9z"></path>
                </g>
            </g>
            <g>
                <g>
                    <g>
                        <path class="st1" d="M-2353.2,653.5c0,1.5-0.8,2.9-2.1,3.6c-0.6,0.4-1.3,0.5-2,0.5c-0.2,0-83.2,0-83.3,0c-0.1,0-0.1,0-0.2,0
                                    c-1.3,0-2.4-0.6-3.2-1.5c-0.1-0.1-0.2-0.2-0.3-0.3c-0.1-0.1-0.2-0.3-0.2-0.4c-0.3-0.6-0.5-1.2-0.5-1.9c0-1,0.4-1.9,1-2.8
                                    c0.2-0.3,29.2-43.9,29.2-44c0,0-7.1-10.6-7.1-10.6l-0.6-0.9c-0.5-1-0.8-2.1-0.8-3.2c0-0.8,0.1-1.6,0.4-2.3
                                    c0.3-0.9,3.4-5.5,3.9-6.2l15.5,23.3l-27.6,41.4h63.8l-7.3-10.9h11.3c0.1,0.2,8.5,12.8,8.9,13.3c0.3,0.4,0.6,0.9,0.8,1.3
                                    C-2353.3,652.3-2353.2,652.9-2353.2,653.5z"></path>
                        <path class="st1" d="M-2378.9,613.5h-11.3l-21.8-32.7c-0.8-1.1-1.2-2.4-1.2-3.9c0-1,0.3-2.1,0.7-3c0.3-0.6,3.5-5.3,3.5-5.4
                                    L-2378.9,613.5z"></path>
                    </g>
                </g>
                <path class="st1" d="M-2308.7,657.5h-7.8c-0.1,0-0.3,0-0.3,0c-1.9,0-3.5-0.8-4.6-2.2c-0.1-0.1-0.1-0.2-0.1-0.2
                            c0,0-0.1-0.1-0.1-0.2l-16.6-24.9c-0.2,0-44,0-44.5,0c-1.1,0-2.2,0-3.3-0.4c-1.9-0.6-3.3-2-4.4-3.6c-0.3-0.4-3.3-5.1-3.6-5.4
                            l49.6,0l-34.1-51.2l-10.5,15.8l-5.6-8.5l16.2-24.3L-2308.7,657.5z"></path>
            </g>
        </g>
        <g>
            <g>
                <g>
                    <path class="st4" d="M-2281.9,1105.9c-2.6-2.4-3.9-5.4-3.9-9.2c0-3.4,1.2-6.3,3.6-8.5c2.4-2.3,5.7-3.7,10.1-4.4
                                c1.1-0.1,2.1-0.2,3.1-0.4c3.5-0.4,5.6-0.7,6.3-0.9c1.8-0.3,2.8-1.3,2.8-3.1c0-1.8-0.8-3.3-2.3-4.4c-1.5-1.1-3.4-1.7-5.7-1.7
                                c-4,0-7,1.5-8.8,4.4c-0.4,0.6-0.9,1-1.4,1c-0.4,0-0.7-0.1-1-0.3l-4.2-2.8c-0.4-0.3-0.7-0.7-0.7-1.3c0-0.1,0-0.4,0.1-0.7
                                c1.4-2.7,3.6-4.9,6.4-6.4c2.8-1.5,6-2.3,9.6-2.3c3.3,0,6.2,0.6,8.6,1.9c2.5,1.2,4.4,3,5.8,5.3c1.4,2.3,2,4.9,2,7.9l0,28
                                c0,0.4-0.1,0.8-0.4,1.1c-0.3,0.3-0.7,0.4-1.1,0.4h-5.1c-0.4,0-0.8-0.1-1.1-0.4c-0.3-0.3-0.4-0.7-0.4-1.2l0-3.8
                                c-3.4,3.6-7.5,5.4-12.2,5.4C-2275.9,1109.4-2279.3,1108.2-2281.9,1105.9z M-2265.5,1100c1.7-1,3.1-2.3,4.2-3.9
                                c1.1-1.6,1.6-3.3,1.6-5.1v-1.5l-5.6,0.8c-3,0.3-5,0.6-5.9,0.8c-4.1,0.7-6.1,2.5-6.1,5.3c0,1.5,0.6,2.8,1.7,3.7
                                c1.1,0.9,2.7,1.4,4.5,1.4C-2269.1,1101.5-2267.3,1101-2265.5,1100z"></path>
                    <path class="st4" d="M-2233.3,1108.2c-2.5-0.8-4.7-2-6.6-3.5c-0.2-0.2-0.4-0.5-0.5-0.8c-0.1-0.3-0.1-0.6,0-0.9
                                c0.3-0.8,1.2-2.4,2.5-4.7c0.4-0.6,0.9-0.9,1.5-0.9c0.3,0,0.7,0.1,1,0.3c1.8,1.2,3.5,2.1,5,2.7c1.6,0.6,3.2,0.9,5,0.9
                                c2.1,0,3.7-0.4,4.8-1.2c1.1-0.8,1.6-1.8,1.6-3.2c0-1.1-0.5-2-1.4-2.7c-0.9-0.6-2.7-1.5-5.4-2.5l-2.7-1c-2.2-0.8-4-1.8-5.6-2.7
                                c-1.5-1-2.8-2.3-3.9-4c-1.1-1.7-1.6-3.8-1.6-6.3c0-3.9,1.3-7,3.9-9.4c2.6-2.3,6.1-3.5,10.4-3.5c2.5,0,5,0.4,7.5,1.2
                                c2.4,0.8,4.6,2,6.4,3.4c0.2,0.2,0.4,0.5,0.5,0.8c0.1,0.3,0.1,0.6,0,0.9c-0.4,1-1.2,2.6-2.2,4.7c-0.3,0.5-0.8,0.8-1.4,0.8
                                c-0.3,0-0.7-0.1-1-0.3c-3.4-2.2-6.6-3.4-9.5-3.4c-1.7,0-3,0.4-4,1.1c-1,0.7-1.5,1.7-1.5,3c0,1.3,0.5,2.4,1.6,3.2
                                c1.1,0.9,3.1,1.9,6,3c2.8,1.1,5,2,6.6,2.8c1.6,0.8,3,2,4.3,3.7c1.3,1.7,2,3.8,2,6.4c0,2.6-0.7,4.9-2,6.9c-1.3,2-3.2,3.5-5.5,4.6
                                c-2.4,1.1-5.1,1.6-8.1,1.6C-2228.3,1109.4-2230.8,1109-2233.3,1108.2z"></path>
                    <path class="st4" d="M-2191.4,1122.2c-0.3-0.4-0.3-0.9-0.1-1.5l3.9-11l-14.6-42.5c-0.1-0.3-0.1-0.5-0.1-0.7
                                c0-0.5,0.2-0.9,0.5-1.2c0.3-0.3,0.8-0.5,1.3-0.5h5.2c0.5,0,1,0.1,1.4,0.4c0.4,0.3,0.7,0.7,0.9,1.2l10.1,30.6l10.1-30.6
                                c0.1-0.5,0.4-0.9,0.9-1.2c0.4-0.3,0.9-0.4,1.4-0.4h4.8c0.5,0,1,0.2,1.3,0.5c0.3,0.3,0.5,0.7,0.5,1.2c0,0.1-0.1,0.4-0.1,0.7
                                l-18.7,54c-0.2,0.5-0.5,0.9-0.9,1.2c-0.4,0.3-0.9,0.4-1.4,0.4h-4.9C-2190.7,1122.9-2191.1,1122.6-2191.4,1122.2z"></path>
                    <path class="st4" d="M-2153.4,1109c-0.3-0.3-0.4-0.7-0.4-1.1l0-41.4c0-0.4,0.1-0.8,0.4-1.1c0.3-0.3,0.7-0.4,1.1-0.4h5.8
                                c0.4,0,0.8,0.1,1.1,0.4c0.3,0.3,0.4,0.7,0.4,1.1v4.4c1.4-1.9,3-3.4,5-4.4c1.9-1.1,4-1.6,6.3-1.6c2.8,0,5.4,0.7,7.6,2
                                c2.3,1.3,4,3.2,5.3,5.6s1.9,5.1,1.9,8l0,27.4c0,0.4-0.1,0.8-0.4,1.1c-0.3,0.3-0.7,0.4-1.1,0.4h-5.8c-0.4,0-0.8-0.1-1.1-0.4
                                c-0.3-0.3-0.4-0.7-0.4-1.1l0-26.3c0-2.6-0.7-4.7-2-6.1c-1.3-1.4-3.2-2.1-5.7-2.1c-2.9,0-5.3,1-7,2.9c-1.7,1.9-2.6,4.6-2.6,7.9
                                l0,23.7c0,0.4-0.1,0.8-0.4,1.1c-0.3,0.3-0.7,0.4-1.1,0.4h-5.8C-2152.8,1109.4-2153.1,1109.3-2153.4,1109z"></path>
                    <path class="st4" d="M-2098.2,1107c-2.7-1.6-4.9-3.7-6.4-6.5c-1.6-2.7-2.4-5.7-2.4-8.9v-9c0-3.2,0.8-6.2,2.4-8.9
                                c1.6-2.7,3.7-4.9,6.4-6.5c2.7-1.6,5.7-2.4,8.9-2.4c2.5,0,4.9,0.5,7.2,1.5c2.3,1,4.2,2.4,5.9,4.3c0.3,0.3,0.5,0.7,0.5,1.2
                                c0,0.5-0.2,1-0.7,1.5l-3.2,3.2c-0.3,0.3-0.7,0.5-1.2,0.5c-0.4,0-0.9-0.2-1.3-0.7c-1.9-1.9-4.3-2.9-7.2-2.9
                                c-2.4,0-4.5,0.9-6.2,2.6c-1.7,1.7-2.6,3.8-2.6,6.2v9.8c0,2.4,0.9,4.5,2.6,6.2c1.7,1.7,3.8,2.6,6.2,2.6c2.9,0,5.3-1,7.2-2.9
                                c0.4-0.4,0.8-0.7,1.3-0.7c0.4,0,0.8,0.2,1.2,0.5l3.2,3.2c0.4,0.4,0.7,0.9,0.7,1.5c0,0.4-0.2,0.8-0.5,1.2
                                c-1.6,1.8-3.6,3.3-5.9,4.3c-2.3,1-4.7,1.5-7.2,1.5C-2092.6,1109.4-2095.5,1108.6-2098.2,1107z"></path>
                </g>
                <g>
                    <path class="st0" d="M-2283.8,1140.7h1.9v15.1h9.4v1.7h-11.3V1140.7z"></path>
                    <path class="st0" d="M-2213.2,1140.7h-1.8l-7.6,16.9h1.9l6.6-14.7l6.5,14.7h2L-2213.2,1140.7z"></path>
                    <path class="st0" d="M-2154.4,1140.7h7.1c1.9,0,3.4,0.6,4.4,1.5c0.7,0.7,1.1,1.6,1.1,2.7v0c0,2.2-1.3,3.3-2.7,3.9
                                c2,0.6,3.6,1.8,3.6,4.1v0c0,2.9-2.4,4.6-6.1,4.6h-7.4V1140.7z M-2143.7,1145.1c0-1.7-1.3-2.7-3.7-2.7h-5.1v5.8h5
                                C-2145.3,1148.2-2143.7,1147.2-2143.7,1145.1L-2143.7,1145.1z M-2147.2,1149.9h-5.3v5.9h5.6c2.5,0,4.1-1.1,4.1-3v0
                                C-2142.8,1150.9-2144.3,1149.9-2147.2,1149.9z"></path>
                    <path class="st0" d="M-2090.3,1154.9l1.2-1.4c1.7,1.5,3.4,2.3,5.7,2.3c2.2,0,3.7-1.2,3.7-2.8v0c0-1.5-0.8-2.4-4.4-3.1
                                c-3.9-0.8-5.6-2-5.6-4.7v0c0-2.6,2.3-4.5,5.5-4.5c2.4,0,4.2,0.7,5.9,2l-1.1,1.4c-1.6-1.2-3.1-1.8-4.8-1.8
                                c-2.2,0-3.6,1.2-3.6,2.6v0c0,1.5,0.9,2.4,4.5,3.2c3.7,0.8,5.5,2.1,5.5,4.6v0c0,2.8-2.4,4.6-5.7,4.6
                                C-2086.2,1157.5-2088.3,1156.7-2090.3,1154.9z"></path>
                </g>
            </g>
            <g>
                <g>
                    <g>
                        <path class="st0" d="M-2353.2,1153.5c0,1.5-0.8,2.9-2.1,3.6c-0.6,0.4-1.3,0.5-2,0.5c-0.2,0-83.2,0-83.3,0c-0.1,0-0.1,0-0.2,0
                                    c-1.3,0-2.4-0.6-3.2-1.5c-0.1-0.1-0.2-0.2-0.3-0.3c-0.1-0.1-0.2-0.3-0.2-0.4c-0.3-0.6-0.5-1.2-0.5-1.9c0-1,0.4-1.9,1-2.8
                                    c0.2-0.3,29.2-43.9,29.2-44c0,0-7.1-10.6-7.1-10.6l-0.6-0.9c-0.5-1-0.8-2.1-0.8-3.2c0-0.8,0.1-1.6,0.4-2.3
                                    c0.3-0.9,3.4-5.5,3.9-6.2l15.5,23.3l-27.6,41.4h63.8l-7.3-10.9h11.3c0.1,0.2,8.5,12.8,8.9,13.3c0.3,0.4,0.6,0.9,0.8,1.3
                                    C-2353.3,1152.3-2353.2,1152.9-2353.2,1153.5z"></path>
                        <path class="st0" d="M-2378.9,1113.5h-11.3l-21.8-32.7c-0.8-1.1-1.2-2.4-1.2-3.9c0-1,0.3-2.1,0.7-3c0.3-0.6,3.5-5.3,3.5-5.4
                                    L-2378.9,1113.5z"></path>
                    </g>
                </g>
                <path class="st4" d="M-2308.7,1157.5h-7.8c-0.1,0-0.3,0-0.3,0c-1.9,0-3.5-0.8-4.6-2.2c-0.1-0.1-0.1-0.2-0.1-0.2
                            c0,0-0.1-0.1-0.1-0.2l-16.6-24.9c-0.2,0-44,0-44.5,0c-1.1,0-2.2,0-3.3-0.4c-1.9-0.6-3.3-2-4.4-3.6c-0.3-0.4-3.3-5.1-3.6-5.4
                            l49.6,0l-34.1-51.2l-10.5,15.8l-5.6-8.5l16.2-24.3L-2308.7,1157.5z"></path>
            </g>
        </g>
        <g>
            <g>
                <g>
                    <path class="st0" d="M-1261.9,86.3c-2.6-2.4-3.9-5.4-3.9-9.2c0-3.4,1.2-6.3,3.6-8.5c2.4-2.3,5.7-3.7,10.1-4.4
                                c1.1-0.1,2.1-0.2,3.1-0.4c3.5-0.4,5.6-0.7,6.3-0.9c1.8-0.3,2.8-1.3,2.8-3.1c0-1.8-0.8-3.3-2.3-4.4c-1.5-1.1-3.4-1.7-5.7-1.7
                                c-4,0-7,1.5-8.8,4.4c-0.4,0.6-0.9,1-1.4,1c-0.4,0-0.7-0.1-1-0.3l-4.2-2.8c-0.4-0.3-0.7-0.7-0.7-1.3c0-0.1,0-0.4,0.1-0.7
                                c1.4-2.7,3.6-4.9,6.4-6.4c2.8-1.5,6-2.3,9.6-2.3c3.3,0,6.2,0.6,8.6,1.9c2.5,1.2,4.4,3,5.8,5.3c1.4,2.3,2,4.9,2,7.9l0,28
                                c0,0.4-0.1,0.8-0.4,1.1c-0.3,0.3-0.7,0.4-1.1,0.4h-5.1c-0.4,0-0.8-0.1-1.1-0.4c-0.3-0.3-0.4-0.7-0.4-1.2l0-3.8
                                c-3.4,3.6-7.5,5.4-12.2,5.4C-1255.9,89.9-1259.3,88.7-1261.9,86.3z M-1245.5,80.4c1.7-1,3.1-2.3,4.2-3.9
                                c1.1-1.6,1.6-3.3,1.6-5.1v-1.5l-5.6,0.8c-3,0.3-5,0.6-5.9,0.8c-4.1,0.7-6.1,2.5-6.1,5.3c0,1.5,0.6,2.8,1.7,3.7
                                c1.1,0.9,2.7,1.4,4.5,1.4C-1249.1,81.9-1247.3,81.4-1245.5,80.4z"></path>
                    <path class="st0" d="M-1213.3,88.6c-2.5-0.8-4.7-2-6.6-3.5c-0.2-0.2-0.4-0.5-0.5-0.8c-0.1-0.3-0.1-0.6,0-0.9
                                c0.3-0.8,1.2-2.4,2.5-4.7c0.4-0.6,0.9-0.9,1.5-0.9c0.3,0,0.7,0.1,1,0.3c1.8,1.2,3.5,2.1,5,2.7c1.6,0.6,3.2,0.9,5,0.9
                                c2.1,0,3.7-0.4,4.8-1.2c1.1-0.8,1.6-1.8,1.6-3.2c0-1.1-0.5-2-1.4-2.7c-0.9-0.6-2.7-1.5-5.4-2.5l-2.7-1c-2.2-0.8-4-1.8-5.6-2.7
                                c-1.5-1-2.8-2.3-3.9-4c-1.1-1.7-1.6-3.8-1.6-6.3c0-3.9,1.3-7,3.9-9.4c2.6-2.3,6.1-3.5,10.4-3.5c2.5,0,5,0.4,7.5,1.2
                                c2.4,0.8,4.6,2,6.4,3.4c0.2,0.2,0.4,0.5,0.5,0.8c0.1,0.3,0.1,0.6,0,0.9c-0.4,1-1.2,2.6-2.2,4.7c-0.3,0.5-0.8,0.8-1.4,0.8
                                c-0.3,0-0.7-0.1-1-0.3c-3.4-2.2-6.6-3.4-9.5-3.4c-1.7,0-3,0.4-4,1.1c-1,0.7-1.5,1.7-1.5,3c0,1.3,0.5,2.4,1.6,3.2
                                c1.1,0.9,3.1,1.9,6,3c2.8,1.1,5,2,6.6,2.8c1.6,0.8,3,2,4.3,3.7c1.3,1.7,2,3.8,2,6.4c0,2.6-0.7,4.9-2,6.9c-1.3,2-3.2,3.5-5.5,4.6
                                c-2.4,1.1-5.1,1.6-8.1,1.6C-1208.3,89.9-1210.8,89.5-1213.3,88.6z"></path>
                    <path class="st0" d="M-1171.4,102.7c-0.3-0.4-0.3-0.9-0.1-1.5l3.9-11l-14.6-42.5c-0.1-0.3-0.1-0.5-0.1-0.7
                                c0-0.5,0.2-0.9,0.5-1.2c0.3-0.3,0.8-0.5,1.3-0.5h5.2c0.5,0,1,0.1,1.4,0.4s0.7,0.7,0.9,1.2l10.1,30.6L-1153,47
                                c0.1-0.5,0.4-0.9,0.9-1.2c0.4-0.3,0.9-0.4,1.4-0.4h4.8c0.5,0,1,0.2,1.3,0.5c0.3,0.3,0.5,0.7,0.5,1.2c0,0.1-0.1,0.4-0.1,0.7
                                l-18.7,54c-0.2,0.5-0.5,0.9-0.9,1.2c-0.4,0.3-0.9,0.4-1.4,0.4h-4.9C-1170.7,103.3-1171.1,103.1-1171.4,102.7z"></path>
                    <path class="st0" d="M-1133.4,89.4c-0.3-0.3-0.4-0.7-0.4-1.1l0-41.4c0-0.4,0.1-0.8,0.4-1.1s0.7-0.4,1.1-0.4h5.8
                                c0.4,0,0.8,0.1,1.1,0.4s0.4,0.7,0.4,1.1v4.4c1.4-1.9,3-3.4,5-4.4c1.9-1.1,4-1.6,6.3-1.6c2.8,0,5.4,0.7,7.6,2
                                c2.3,1.3,4,3.2,5.3,5.6c1.3,2.4,1.9,5.1,1.9,8l0,27.4c0,0.4-0.1,0.8-0.4,1.1c-0.3,0.3-0.7,0.4-1.1,0.4h-5.8
                                c-0.4,0-0.8-0.1-1.1-0.4c-0.3-0.3-0.4-0.7-0.4-1.1l0-26.3c0-2.6-0.7-4.7-2-6.1c-1.3-1.4-3.2-2.1-5.7-2.1c-2.9,0-5.3,1-7,2.9
                                c-1.7,1.9-2.6,4.6-2.6,7.9l0,23.7c0,0.4-0.1,0.8-0.4,1.1c-0.3,0.3-0.7,0.4-1.1,0.4h-5.8C-1132.8,89.9-1133.1,89.7-1133.4,89.4z"></path>
                    <path class="st0" d="M-1078.2,87.5c-2.7-1.6-4.9-3.7-6.4-6.5c-1.6-2.7-2.4-5.7-2.4-8.9v-9c0-3.2,0.8-6.2,2.4-8.9
                                c1.6-2.7,3.7-4.9,6.4-6.5c2.7-1.6,5.7-2.4,8.9-2.4c2.5,0,4.9,0.5,7.2,1.5c2.3,1,4.2,2.4,5.9,4.3c0.3,0.3,0.5,0.7,0.5,1.2
                                c0,0.5-0.2,1-0.7,1.5l-3.2,3.2c-0.3,0.3-0.7,0.5-1.2,0.5c-0.4,0-0.9-0.2-1.3-0.7c-1.9-1.9-4.3-2.9-7.2-2.9
                                c-2.4,0-4.5,0.9-6.2,2.6c-1.7,1.7-2.6,3.8-2.6,6.2v9.8c0,2.4,0.9,4.5,2.6,6.2c1.7,1.7,3.8,2.6,6.2,2.6c2.9,0,5.3-1,7.2-2.9
                                c0.4-0.4,0.8-0.7,1.3-0.7c0.4,0,0.8,0.2,1.2,0.5l3.2,3.2c0.4,0.4,0.7,0.9,0.7,1.5c0,0.4-0.2,0.8-0.5,1.2
                                c-1.6,1.8-3.6,3.3-5.9,4.3c-2.3,1-4.7,1.5-7.2,1.5C-1072.6,89.9-1075.5,89.1-1078.2,87.5z"></path>
                </g>
                <g>
                    <path class="st0" d="M-1263.8,121.1h1.9v15.1h9.4v1.7h-11.3V121.1z"></path>
                    <path class="st0" d="M-1193.2,121.1h-1.8l-7.6,16.9h1.9l6.6-14.7l6.5,14.7h2L-1193.2,121.1z"></path>
                    <path class="st0" d="M-1134.4,121.1h7.1c1.9,0,3.4,0.6,4.4,1.5c0.7,0.7,1.1,1.6,1.1,2.7v0c0,2.2-1.3,3.3-2.7,3.9
                                c2,0.6,3.6,1.8,3.6,4.1v0c0,2.9-2.4,4.6-6.1,4.6h-7.4V121.1z M-1123.7,125.6c0-1.7-1.3-2.7-3.7-2.7h-5.1v5.8h5
                                C-1125.3,128.7-1123.7,127.6-1123.7,125.6L-1123.7,125.6z M-1127.2,130.3h-5.3v5.9h5.6c2.5,0,4.1-1.1,4.1-3v0
                                C-1122.8,131.4-1124.3,130.3-1127.2,130.3z"></path>
                    <path class="st0" d="M-1070.3,135.4l1.2-1.4c1.7,1.5,3.4,2.3,5.7,2.3c2.2,0,3.7-1.2,3.7-2.8v0c0-1.5-0.8-2.4-4.4-3.1
                                c-3.9-0.8-5.6-2-5.6-4.7v0c0-2.6,2.3-4.5,5.5-4.5c2.4,0,4.2,0.7,5.9,2l-1.1,1.4c-1.6-1.2-3.1-1.8-4.8-1.8
                                c-2.2,0-3.6,1.2-3.6,2.6v0c0,1.5,0.9,2.4,4.5,3.2c3.7,0.8,5.5,2.1,5.5,4.6v0c0,2.8-2.4,4.6-5.7,4.6
                                C-1066.2,138-1068.3,137.1-1070.3,135.4z"></path>
                </g>
            </g>
            <g>
                <g>
                    <g>
                        <path class="st0" d="M91.7,100.9c0,1.5-0.8,2.9-2.1,3.6c-0.6,0.4-1.3,0.5-2,0.5c-0.2,0-83.2,0-83.3,0c-0.1,0-0.1,0-0.2,0
                                    c-1.3,0-2.4-0.6-3.2-1.5c-0.1-0.1-0.2-0.2-0.3-0.3c-0.1-0.1-0.2-0.3-0.2-0.4c-0.3-0.6-0.5-1.2-0.5-1.9c0-1,0.4-1.9,1-2.8
                                    c0.2-0.3,29.2-43.9,29.2-44c0,0-7.1-10.6-7.1-10.6l-0.6-0.9c-0.5-1-0.8-2.1-0.8-3.2c0-0.8,0.1-1.6,0.4-2.3
                                    c0.3-0.9,3.4-5.5,3.9-6.2l15.5,23.3L13.9,95.6h63.8l-7.3-10.9h11.3c0.1,0.2,8.5,12.8,8.9,13.3c0.3,0.4,0.6,0.9,0.8,1.3
                                    C91.6,99.8,91.7,100.4,91.7,100.9z"></path>
                        <path class="st0" d="M66,61H54.7L32.9,28.3c-0.8-1.1-1.2-2.4-1.2-3.9c0-1,0.3-2.1,0.7-3c0.3-0.6,3.5-5.3,3.5-5.4L66,61z"></path>
                    </g>
                </g>
                <path class="st0" d="M136.2,105h-7.8c-0.1,0-0.3,0-0.3,0c-1.9,0-3.5-0.8-4.6-2.2c-0.1-0.1-0.1-0.2-0.1-0.2c0,0-0.1-0.1-0.1-0.2
                            l-16.6-24.9c-0.2,0-44,0-44.5,0c-1.1,0-2.2,0-3.3-0.4c-1.9-0.6-3.3-2-4.4-3.6c-0.3-0.4-3.3-5.1-3.6-5.4l49.6,0L66.3,16.9
                            L55.8,32.7l-5.6-8.5L66.3,0L136.2,105z"></path>
            </g>
        </g>
        <g>
            <g>
                <text transform="matrix(1 0 0 1 -1203.1177 617.3045)" class="st1" style="font-family: 'Gotham-Medium'; font-size: 29.2853px">
                    R38 G103 B198
                </text>
                <rect x="-1509.9" y="584.7" class="st3" width="40.6" height="40.6"></rect>
                <text transform="matrix(1 0 0 1 -1402.9849 617.3045)" class="st1" style="font-family: 'Gotham-Medium'; font-size: 29.2853px">
                    #2667C6
                </text>
            </g>
            <g>
                <text transform="matrix(1 0 0 1 -1203.1177 713.1642)" class="st1" style="font-family: 'Gotham-Medium'; font-size: 29.2853px">
                    R107 G107 B107
                </text>
                <rect x="-1509.9" y="680.6" class="st1" width="40.6" height="40.6"></rect>
                <text transform="matrix(1 0 0 1 -1402.9849 713.1642)" class="st1" style="font-family: 'Gotham-Medium'; font-size: 29.2853px">
                    #6B6B6B
                </text>
            </g>
            <g>
                <rect x="-1509.9" y="488.9" class="st2" width="40.6" height="40.6"></rect>
                <text transform="matrix(1 0 0 1 -1402.9849 521.4451)" class="st1" style="font-family: 'Gotham-Medium'; font-size: 29.2853px">
                    #237EF3
                </text>
                <text transform="matrix(1 0 0 1 -1203.1177 521.4451)" class="st1" style="font-family: 'Gotham-Medium'; font-size: 29.2853px">
                    R35 G126 B243
                </text>
            </g>
        </g>
        <g>
            <g>
                <rect x="-1516.8" y="1030.5" class="st4" width="40.6" height="40.6"></rect>
                <text transform="matrix(1 0 0 1 -1409.8999 1063.043)" class="st0" style="font-family: 'Gotham-Medium'; font-size: 29.2853px">
                    #D9E3E8
                </text>
                <text transform="matrix(1 0 0 1 -1210.0327 1063.043)" class="st0" style="font-family: 'Gotham-Medium'; font-size: 29.29px">
                    R217 G227 B232
                </text>
            </g>
            <g>
                <rect x="-1516.8" y="1139" class="st0" width="40.6" height="40.6"></rect>
                <text transform="matrix(1 0 0 1 -1409.8999 1171.5651)" class="st0" style="font-family: 'Gotham-Medium'; font-size: 29.2853px">
                    #FFFFFF
                </text>
                <text transform="matrix(1 0 0 1 -1210.0327 1171.5651)" class="st0" style="font-family: 'Gotham-Medium'; font-size: 29.29px">
                    R255 G255 B255
                </text>
            </g>
        </g>
    </g>
</svg>